<svg width="44" height="22" viewBox="0 0 44 22" fill="none" xmlns="http://www.w3.org/2000/svg">
<path d="M0.452 2.478H5.512V1.048H7.052V2.478H12.948V1.026H14.488V2.478H19.482V3.886H14.488V5.404H12.948V3.886H7.052V5.514H5.512V3.886H0.452V2.478ZM16.05 8L17.37 8.638C16.6 10.002 15.698 11.212 14.642 12.224L13.476 11.366C14.466 10.42 15.324 9.298 16.05 8ZM9.868 8.506C10.308 9.298 10.682 10.2 11.012 11.234L9.604 11.586C9.318 10.662 8.966 9.76 8.548 8.924L9.868 8.506ZM4.214 8.792C4.808 9.804 5.336 10.904 5.776 12.07L4.478 12.642C3.994 11.366 3.444 10.222 2.872 9.232L4.214 8.792ZM17.26 5.558L18.03 6.856C14.048 7.604 8.768 8 2.168 8L1.684 6.526C7.932 6.526 13.124 6.196 17.26 5.558ZM0.782 13.544H9.23V12.136H10.77V13.544H19.218V15.018H12.288C13.872 16.624 16.424 18.054 19.944 19.308L18.866 20.694C15.126 18.978 12.464 17.086 10.924 15.018H10.77V21.2H9.23V15.018H9.076C7.404 17.306 4.72 19.198 1.002 20.694L0.122 19.22C3.554 18.12 6.062 16.712 7.69 15.018H0.782V13.544ZM26.322 4.458H35.804C36.508 3.358 37.146 2.148 37.696 0.871999L39.236 1.422C38.708 2.544 38.114 3.556 37.454 4.458H41.678V13.5H34.792V15.59H43.768V17.086H34.792V21.266H33.208V17.086H24.232V15.59H33.208V13.5H26.322V4.458ZM40.138 12.092V9.628H34.792V12.092H40.138ZM33.208 12.092V9.628H27.862V12.092H33.208ZM27.862 8.264H33.208V5.844H27.862V8.264ZM34.792 5.844V8.264H40.138V5.844H34.792ZM30.216 0.981999C30.942 1.818 31.624 2.764 32.284 3.776L30.964 4.436C30.304 3.38 29.622 2.456 28.874 1.62L30.216 0.981999Z" fill="black"/>
</svg>
